<svg xmlns="http://www.w3.org/2000/svg" width="1800" height="1600"><rect width="1800" height="1600" x="0" y="0" fill="#FFFFFF" id="background"/><g transform="translate(30,25)" id="visualization"><g><rect x="858" y="110.00000000000023" height="525.2855296962904" width="4" fill="black"><title>Carnes, huevos y lacteos: 157773.25</title></rect><rect x="0" y="97.50000000000023" height="450.35556019916544" width="4" fill="black"><title>Feria Sabados: 135267.5</title></rect><rect x="0" y="552.8555601991657" height="217.9286761512369" width="4" fill="black"><title>Coto: 65456.42999999999</title></rect><rect x="0" y="775.7842363504026" height="187.75449571061495" width="4" fill="black"><title>Dia: 56393.399999999994</title></rect><rect x="858" y="640.2855296962906" height="183.5145429805532" width="4" fill="black"><title>Verduras y frutas: 55119.9</title></rect><rect x="858" y="828.8000726768438" height="163.17652017447017" width="4" fill="black"><title>Cereales: 49011.229999999996</title></rect><rect x="1716" y="2.2737367544323206e-13" height="158.13175882765324" width="4" fill="black"><title>Milanesa de carne: 47496</title></rect><rect x="0" y="968.5387320610175" height="138.56505117584834" width="4" fill="black"><title>Farmacity: 41619</title></rect><rect x="858" y="996.976592851314" height="131.08295791297598" width="4" fill="black"><title>Higiene: 39371.7</title></rect><rect x="1716" y="163.13175882765347" height="126.31629884455867" width="4" fill="black"><title>Huevo: 37940</title></rect><rect x="0" y="1112.1037832368659" height="124.56505021007683" width="4" fill="black"><title>Carrefour Express: 37414</title></rect><rect x="858" y="1133.05955076429" height="119.80405107070646" width="4" fill="black"><title>Utensilios: 35984</title></rect><rect x="1716" y="294.44805767221214" height="96.62830630905705" width="4" fill="black"><title>Milanesa de pollo: 29023</title></rect><rect x="858" y="1257.8636018349964" height="89.29037476837675" width="4" fill="black"><title>Salud: 26819</title></rect><rect x="0" y="1241.6688334469427" height="86.230683713075" width="4" fill="black"><title>Bazar La Luna: 25900</title></rect><rect x="1716" y="396.0763639812692" height="80.75047406035708" width="4" fill="black"><title>Pan: 24253.98</title></rect><rect x="1716" y="481.8268380416263" height="71.50404773879484" width="4" fill="black"><title>Leche: 21476.75</title></rect><rect x="1716" y="558.3308857804211" height="50.154961842750936" width="4" fill="black"><title>Banana: 15064.400000000001</title></rect><rect x="858" y="1352.1539766033732" height="48.987518242596934" width="4" fill="black"><title>Otros: 14713.75</title></rect><rect x="858" y="1406.14149484597" height="48.8585051540299" width="4" fill="black"><title>Snacks: 14675</title></rect><rect x="1716" y="613.485847623172" height="46.278243382692835" width="4" fill="black"><title>Vitamina: 13900</title></rect><rect x="1716" y="664.7640910058649" height="44.946495371680044" width="4" fill="black"><title>Sarten: 13500</title></rect><rect x="1716" y="714.7105863775449" height="39.752678128730395" width="4" fill="black"><title>Barra de proteina: 11940</title></rect><rect x="1716" y="759.4632645062753" height="36.78537709169257" width="4" fill="black"><title>Chocolate en polvo: 11048.75</title></rect><rect x="1716" y="801.2486415979679" height="36.623070302850465" width="4" fill="black"><title>Brocoli: 11000</title></rect><rect x="1716" y="842.8717119008184" height="36.16028786902348" width="4" fill="black"><title>Jugo de fruta: 10861</title></rect><rect x="1716" y="884.0319997698418" height="31.975269744415982" width="4" fill="black"><title>Mandarina: 9604</title></rect><rect x="1716" y="921.0072695142578" height="29.581452694620566" width="4" fill="black"><title>Galletas: 8885</title></rect><rect x="1716" y="955.5887222088784" height="29.448277893519275" width="4" fill="black"><title>Espuma de afeitar: 8845</title></rect><rect x="1716" y="990.0370001023977" height="26.63496022025481" width="4" fill="black"><title>Vaporera: 8000</title></rect><rect x="1716" y="1021.6719603226525" height="24.687278754148792" width="4" fill="black"><title>Shampoo: 7415</title></rect><rect x="1716" y="1051.3592390768013" height="23.455411843961883" width="4" fill="black"><title>Arroz: 7045</title></rect><rect x="0" y="1332.8995171600177" height="23.305590192722775" width="4" fill="black"><title>Gastronovo Belgrano: 7000</title></rect><rect x="1716" y="1079.8146509207631" height="23.305590192723002" width="4" fill="black"><title>Milanesa napolitana: 7000</title></rect><rect x="1716" y="1108.1202411134861" height="22.872772089143837" width="4" fill="black"><title>Acondicionador: 6870</title></rect><rect x="1716" y="1135.99301320263" height="21.341261876479166" width="4" fill="black"><title>Aceite de girasol: 6410</title></rect><rect x="0" y="1361.2051073527405" height="19.668253437644353" width="4" fill="black"><title>Res: 5907.5</title></rect><rect x="1716" y="1162.3342750791091" height="19.668253437644353" width="4" fill="black"><title>Suprema de pollo: 5907.5</title></rect><rect x="1716" y="1187.0025285167535" height="18.9241392364911" width="4" fill="black"><title>Corta uñas: 5684</title></rect><rect x="1716" y="1210.9266677532446" height="18.694412704591286" width="4" fill="black"><title>Manzana: 5615</title></rect><rect x="0" y="1385.8733607903848" height="18.644472154178402" width="4" fill="black"><title>Fruteria Colon: 5600</title></rect><rect x="1716" y="1234.621080457836" height="15.223544450889449" width="4" fill="black"><title>Fideos: 4572.5</title></rect><rect x="1716" y="1254.8446249087253" height="14.98216512389331" width="4" fill="black"><title>Dulce de leche: 4500</title></rect><rect x="1716" y="1274.8267900326186" height="14.64922812114014" width="4" fill="black"><title>Taza: 4400</title></rect><rect x="1716" y="1294.4760181537588" height="14.582640720589552" width="4" fill="black"><title>Papel toalla: 4380</title></rect><rect x="0" y="1409.5178329445632" height="12.318669101868181" width="4" fill="black"><title>Empanadaza: 3700</title></rect><rect x="1716" y="1314.0586588743483" height="12.318669101867954" width="4" fill="black"><title>Empanada: 3700</title></rect><rect x="1716" y="1331.3773279762163" height="11.486326594984803" width="4" fill="black"><title>Maquina de afeitar: 3450</title></rect><rect x="0" y="1426.8365020464314" height="10.653984088101879" width="4" fill="black"><title>Supermercado Orient: 3200</title></rect><rect x="0" y="1442.4904861345333" height="10.021403782870948" width="4" fill="black"><title>Mercado la Oficina: 3010</title></rect><rect x="0" y="1457.5118899174042" height="9.98811008259554" width="4" fill="black"><title>Tienda peruana: 3000</title></rect><rect x="1716" y="1347.863654571201" height="9.90654051692104" width="4" fill="black"><title>Zanahoria: 2975.5</title></rect><rect x="1716" y="1362.7701950881221" height="9.322236077089201" width="4" fill="black"><title>Tapones para oidos: 2800</title></rect><rect x="1716" y="1377.0924311652113" height="8.469085007534204" width="4" fill="black"><title>Salsa bolognesa: 2543.75</title></rect><rect x="1716" y="1390.5615161727455" height="8.323425068829692" width="4" fill="black"><title>Jabon: 2500</title></rect><rect x="1716" y="1403.8849412415752" height="7.840666414837415" width="4" fill="black"><title>Crema dental: 2355</title></rect><rect x="1716" y="1416.7256076564126" height="7.291320360294776" width="4" fill="black"><title>Detergente: 2190</title></rect><rect x="1716" y="1429.0169280167074" height="6.961712727569193" width="4" fill="black"><title>Cereal: 2091</title></rect><rect x="1716" y="1440.9786407442766" height="5.9928660495572785" width="4" fill="black"><title>Jamon: 1800</title></rect><rect x="1716" y="1451.971506793834" height="5.316005122960178" width="4" fill="black"><title>Antitranspirante: 1596.7</title></rect><rect x="1716" y="1462.287511916794" height="4.960761341022362" width="4" fill="black"><title>Budin: 1490</title></rect><rect x="1716" y="1472.2482732578164" height="4.6611180385446005" width="4" fill="black"><title>Queso: 1400</title></rect><rect x="1716" y="1481.909391296361" height="4.627824338269193" width="4" fill="black"><title>Jabonera: 1390</title></rect><rect x="1716" y="1491.5372156346302" height="4.507967017278133" width="4" fill="black"><title>Tijera: 1354</title></rect><rect x="1716" y="1501.0451826519084" height="4.494649537168016" width="4" fill="black"><title>Lavavajillas: 1350</title></rect><rect x="1716" y="1510.5398321890764" height="4.095125133864258" width="4" fill="black"><title>Atun: 1230</title></rect><rect x="1716" y="1519.6349573229406" height="3.2594532569537478" width="4" fill="black"><title>Te: 979</title></rect><rect x="1716" y="1527.8944105798944" height="3.1595721561277514" width="4" fill="black"><title>Portaminas: 949</title></rect><rect x="1716" y="1536.0539827360221" height="2.9298456242281645" width="4" fill="black"><title>Sal: 880</title></rect><rect x="1716" y="1543.9838283602503" height="1.997622016519017" width="4" fill="black"><title>Pionono: 600</title></rect><rect x="1716" y="1550.9814503767693" height="1.6646850137658475" width="4" fill="black"><title>Bolsa de tela: 500</title></rect><rect x="1716" y="1557.6461353905352" height="1.6646850137658475" width="4" fill="black"><title>Minas: 500</title></rect><rect x="1716" y="1564.310820404301" height="0.6891795956989881" width="4" fill="black"><title>Goma de borrar: 207</title></rect></g><g fill="none" stroke-opacity="0.7"><g style="mix-blend-mode: multiply;"><path d="M4,1123.2821431043042C431,1123.2821431043042,431,984.8933581177399,858,984.8933581177399" stroke="#f8e71c" stroke-width="14.166469467148051"/><title>Carrefour Express → Cereales: 4255</title></g><g style="mix-blend-mode: multiply;"><path d="M4,1207.2055733882999C431,1207.2055733882999,431,1345.5242499748965,858,1345.5242499748965" stroke="#f8e71c" stroke-width="3.259453256953688"/><title>Carrefour Express → Salud: 979</title></g><g style="mix-blend-mode: multiply;"><path d="M4,1234.1884527764319C431,1234.1884527764319,431,1440.200950227621,858,1440.200950227621" stroke="#f8e71c" stroke-width="4.960761341022467"/><title>Carrefour Express → Snacks: 1490</title></g><g style="mix-blend-mode: multiply;"><path d="M4,1167.9706122988505C431,1167.9706122988505,431,1090.4543163033175,858,1090.4543163033175" stroke="#f8e71c" stroke-width="75.21046892194465"/><title>Carrefour Express → Higiene: 22590</title></g><g style="mix-blend-mode: multiply;"><path d="M4,1220.2716860613486C431,1220.2716860613486,431,1389.7051088013982,858,1389.7051088013982" stroke="#f8e71c" stroke-width="22.872772089143858"/><title>Carrefour Express → Otros: 6870</title></g><g style="mix-blend-mode: multiply;"><path d="M4,889.4436020982961C431,889.4436020982961,431,962.7280771594466,858,962.7280771594466" stroke="#f03f73" stroke-width="30.164092449438623"/><title>Dia → Cereales: 9060</title></g><g style="mix-blend-mode: multiply;"><path d="M4,789.834177866587C431,789.834177866587,431,563.5126353277727,858,563.5126353277727" stroke="#f03f73" stroke-width="28.099883032368872"/><title>Dia → Carnes, huevos y lacteos: 8440</title></g><g style="mix-blend-mode: multiply;"><path d="M4,925.1344487934376C431,925.1344487934376,431,1369.4458921838668,858,1369.4458921838668" stroke="#f03f73" stroke-width="17.64566114591884"/><title>Dia → Otros: 5300</title></g><g style="mix-blend-mode: multiply;"><path d="M4,910.4186332717468C431,910.4186332717468,431,1008.1855829230054,858,1008.1855829230054" stroke="#f03f73" stroke-width="11.785969897462774"/><title>Dia → Higiene: 3540</title></g><g style="mix-blend-mode: multiply;"><path d="M4,1114.151345803798C431,1114.151345803798,431,579.6101394108894,858,579.6101394108894" stroke="#f8e71c" stroke-width="4.095125133864184"/><title>Carrefour Express → Carnes, huevos y lacteos: 1230</title></g><g style="mix-blend-mode: multiply;"><path d="M4,284.72545881324044C431,284.72545881324044,431,297.22545881324044,858,297.22545881324044" stroke="#c0e8e8" stroke-width="374.4509176264804"/><title>Feria Sabados → Carnes, huevos y lacteos: 112469</title></g><g style="mix-blend-mode: multiply;"><path d="M4,509.90323891282316C431,509.90323891282316,431,678.2378509826332,858,678.2378509826332" stroke="#c0e8e8" stroke-width="75.90464257268503"/><title>Feria Sabados → Verduras y frutas: 22798.5</title></g><g style="mix-blend-mode: multiply;"><path d="M4,987.9239890463218C431,987.9239890463218,431,1033.4638248570411,858,1033.4638248570411" stroke="#94f82a" stroke-width="38.77051397060848"/><title>Farmacity → Higiene: 11645</title></g><g style="mix-blend-mode: multiply;"><path d="M4,1284.7841753034802C431,1284.7841753034802,431,1199.7268561955877,858,1199.7268561955877" stroke="#9b9b9b" stroke-width="86.2306837130751"/><title>Bazar La Luna → Utensilios: 25900</title></g><g style="mix-blend-mode: multiply;"><path d="M4,685.7901971935039C431,685.7901971935039,431,888.2230518057855,858,888.2230518057855" stroke="#f48b4d" stroke-width="118.84595825788348"/><title>Coto → Cereales: 35696.229999999996</title></g><g style="mix-blend-mode: multiply;"><path d="M4,585.3614482917195C431,585.3614482917195,431,516.9568057190345,858,516.9568057190345" stroke="#f48b4d" stroke-width="65.01177618510769"/><title>Coto → Carnes, huevos y lacteos: 19526.75</title></g><g style="mix-blend-mode: multiply;"><path d="M4,622.1172772244178C431,622.1172772244178,431,720.44011310912,858,720.44011310912" stroke="#f48b4d" stroke-width="8.49988168028883"/><title>Coto → Verduras y frutas: 2553</title></g><g style="mix-blend-mode: multiply;"><path d="M4,755.4233553858775C431,755.4233553858775,431,1137.9537247047617,858,1137.9537247047617" stroke="#f48b4d" stroke-width="9.78834788094366"/><title>Coto → Utensilios: 2940</title></g><g style="mix-blend-mode: multiply;"><path d="M4,1415.677167495497C431,1415.677167495497,431,1448.840665449066,858,1448.840665449066" stroke="#dedd32" stroke-width="12.31866910186787"/><title>Empanadaza → Snacks: 3700</title></g><g style="mix-blend-mode: multiply;"><path d="M4,839.1228376281741C431,839.1228376281741,431,759.9287721946671,858,759.9287721946671" stroke="#f03f73" stroke-width="70.47743649080535"/><title>Dia → Verduras y frutas: 21168.399999999998</title></g><g style="mix-blend-mode: multiply;"><path d="M4,1014.1910538785344C431,1014.1910538785344,431,1149.7297064921418,858,1149.7297064921418" stroke="#94f82a" stroke-width="13.763615693816696"/><title>Farmacity → Utensilios: 4134</title></g><g style="mix-blend-mode: multiply;"><path d="M4,1064.0883224811544C431,1064.0883224811544,431,1300.879062590708,858,1300.879062590708" stroke="#94f82a" stroke-width="86.03092151142319"/><title>Farmacity → Salud: 25840</title></g><g style="mix-blend-mode: multiply;"><path d="M4,1371.0392340715628C431,1371.0392340715628,431,614.7974188893666,858,614.7974188893666" stroke="#ba2208" stroke-width="19.668253437644445"/><title>Res → Carnes, huevos y lacteos: 5907.5</title></g><g style="mix-blend-mode: multiply;"><path d="M4,948.7480057137074C431,948.7480057137074,431,1422.9298432097994,858,1422.9298432097994" stroke="#f03f73" stroke-width="29.58145269462055"/><title>Dia → Snacks: 8885</title></g><g style="mix-blend-mode: multiply;"><path d="M4,1462.505944958702C431,1462.505944958702,431,818.8060176355459,858,818.8060176355459" stroke="#900c00" stroke-width="9.98811008259557"/><title>Tienda peruana → Verduras y frutas: 3000</title></g><g style="mix-blend-mode: multiply;"><path d="M4,1447.5011880259688C431,1447.5011880259688,431,1247.8528999435607,858,1247.8528999435607" stroke="#db3d11" stroke-width="10.02140378287089"/><title>Mercado la Oficina → Utensilios: 3010</title></g><g style="mix-blend-mode: multiply;"><path d="M4,1395.195596867474C431,1395.195596867474,431,804.4897265171589,858,804.4897265171589" stroke="#ff821d" stroke-width="18.6444721541784"/><title>Fruteria Colon → Verduras y frutas: 5600</title></g><g style="mix-blend-mode: multiply;"><path d="M4,764.5520718301165C431,764.5520718301165,431,1356.3885191071402,858,1356.3885191071402" stroke="#f48b4d" stroke-width="8.469085007534161"/><title>Coto → Otros: 2543.75</title></g><g style="mix-blend-mode: multiply;"><path d="M4,769.7854253421431C431,769.7854253421431,431,1407.1403058542296,858,1407.1403058542296" stroke="#f48b4d" stroke-width="1.997622016519114"/><title>Coto → Snacks: 600</title></g><g style="mix-blend-mode: multiply;"><path d="M4,1432.1634940904823C431,1432.1634940904823,431,629.9585376522398,858,629.9585376522398" stroke="#9d1000" stroke-width="10.653984088101943"/><title>Supermercado Orient → Carnes, huevos y lacteos: 3200</title></g><g style="mix-blend-mode: multiply;"><path d="M4,1344.552312256379C431,1344.552312256379,431,593.3104970741829,858,593.3104970741829" stroke="#f65f18" stroke-width="23.305590192723"/><title>Gastronovo Belgrano → Carnes, huevos y lacteos: 7000</title></g><g style="mix-blend-mode: multiply;"><path d="M4,747.8711788839257C431,747.8711788839257,431,999.634595412794,858,999.634595412794" stroke="#f48b4d" stroke-width="5.316005122960116"/><title>Coto → Higiene: 1596.7</title></g><g style="mix-blend-mode: multiply;"><path d="M862,869.1753097070224C1289,869.1753097070224,1289,436.45160101144774,1716,436.45160101144774" stroke="#d2ad25" stroke-width="80.7504740603571"/><title>Cereales → Pan: 24253.98</title></g><g style="mix-blend-mode: multiply;"><path d="M862,1345.5242499748965C1289,1345.5242499748965,1289,1521.2646839514175,1716,1521.2646839514175" stroke="#8eea1e" stroke-width="3.259453256953688"/><title>Salud → Te: 979</title></g><g style="mix-blend-mode: multiply;"><path d="M862,1450.52199731297C1289,1450.52199731297,1289,1464.7678925873054,1716,1464.7678925873054" stroke="#f18c31" stroke-width="4.960761341022467"/><title>Snacks → Budin: 1490</title></g><g style="mix-blend-mode: multiply;"><path d="M862,1107.0372425364483C1289,1107.0372425364483,1289,1407.805274448994,1716,1407.805274448994" stroke="#71f2ec" stroke-width="7.840666414837523"/><title>Higiene → Crema dental: 2355</title></g><g style="mix-blend-mode: multiply;"><path d="M862,1098.9551967946147C1289,1098.9551967946147,1289,1394.7232287071604,1716,1394.7232287071604" stroke="#71f2ec" stroke-width="8.323425068829643"/><title>Higiene → Jabon: 2500</title></g><g style="mix-blend-mode: multiply;"><path d="M862,1062.548535543554C1289,1062.548535543554,1289,1119.556627158058,1716,1119.556627158058" stroke="#71f2ec" stroke-width="22.872772089143858"/><title>Higiene → Acondicionador: 6870</title></g><g style="mix-blend-mode: multiply;"><path d="M862,1038.7685101219076C1289,1038.7685101219076,1289,1034.0155996997269,1716,1034.0155996997269" stroke="#71f2ec" stroke-width="24.687278754148718"/><title>Higiene → Shampoo: 7415</title></g><g style="mix-blend-mode: multiply;"><path d="M862,1400.309152339087C1289,1400.309152339087,1289,1551.8137928836522,1716,1551.8137928836522" stroke="#3e7bf7" stroke-width="1.6646850137659284"/><title>Otros → Bolsa de tela: 500</title></g><g style="mix-blend-mode: multiply;"><path d="M862,958.0636297508744C1289,958.0636297508744,1289,1063.0869449987822,1716,1063.0869449987822" stroke="#d2ad25" stroke-width="23.455411843961933"/><title>Cereales → Arroz: 7045</title></g><g style="mix-blend-mode: multiply;"><path d="M862,526.8283878506663C1289,526.8283878506663,1289,517.5788619110236,1716,517.5788619110236" stroke="#e1596a" stroke-width="71.50404773879481"/><title>Carnes, huevos y lacteos → Leche: 21476.75</title></g><g style="mix-blend-mode: multiply;"><path d="M862,1398.0118870200902C1289,1398.0118870200902,1289,1537.5189055481362,1716,1537.5189055481362" stroke="#3e7bf7" stroke-width="2.929845624228034"/><title>Otros → Sal: 880</title></g><g style="mix-blend-mode: multiply;"><path d="M862,331.28990824993264C1289,331.28990824993264,1289,226.2899082499328,1716,226.2899082499328" stroke="#e1596a" stroke-width="126.31629884455864"/><title>Carnes, huevos y lacteos → Huevo: 37940</title></g><g style="mix-blend-mode: multiply;"><path d="M862,1125.8122259957058C1289,1125.8122259957058,1289,1503.2925074204923,1716,1503.2925074204923" stroke="#71f2ec" stroke-width="4.494649537168007"/><title>Higiene → Lavavajillas: 1350</title></g><g style="mix-blend-mode: multiply;"><path d="M862,613.0453379123779C1289,613.0453379123779,1289,1262.335707470672,1716,1262.335707470672" stroke="#e1596a" stroke-width="14.982165123893356"/><title>Carnes, huevos y lacteos → Dulce de leche: 4500</title></g><g style="mix-blend-mode: multiply;"><path d="M862,1114.6032359240144C1289,1114.6032359240144,1289,1420.37126783656,1716,1420.37126783656" stroke="#71f2ec" stroke-width="7.291320360294766"/><title>Higiene → Detergente: 2190</title></g><g style="mix-blend-mode: multiply;"><path d="M862,633.2379671293587C1289,633.2379671293587,1289,1512.5873947560085,1716,1512.5873947560085" stroke="#e1596a" stroke-width="4.095125133864184"/><title>Carnes, huevos y lacteos → Atun: 1230</title></g><g style="mix-blend-mode: multiply;"><path d="M862,1362.8246075416127C1289,1362.8246075416127,1289,1146.6636441408696,1716,1146.6636441408696" stroke="#3e7bf7" stroke-width="21.3412618764792"/><title>Otros → Aceite de girasol: 6410</title></g><g style="mix-blend-mode: multiply;"><path d="M862,442.76221082674044C1289,442.76221082674044,1289,342.76221082674067,1716,342.76221082674067" stroke="#e1596a" stroke-width="96.62830630905708"/><title>Carnes, huevos y lacteos → Milanesa de pollo: 29023</title></g><g style="mix-blend-mode: multiply;"><path d="M862,779.2114845831235C1289,779.2114845831235,1289,900.0196346420498,1716,900.0196346420498" stroke="#3feb34" stroke-width="31.975269744415954"/><title>Verduras y frutas → Mandarina: 9604</title></g><g style="mix-blend-mode: multiply;"><path d="M862,665.3630106176661C1289,665.3630106176661,1289,583.4083667017966,1716,583.4083667017966" stroke="#3feb34" stroke-width="50.15496184275091"/><title>Verduras y frutas → Banana: 15064.400000000001</title></g><g style="mix-blend-mode: multiply;"><path d="M862,1011.7007317980735C1289,1011.7007317980735,1289,970.3128611556381,1716,970.3128611556381" stroke="#71f2ec" stroke-width="29.448277893519275"/><title>Higiene → Espuma de afeitar: 8845</title></g><g style="mix-blend-mode: multiply;"><path d="M862,1380.786558840147C1289,1380.786558840147,1289,1301.7673385140536,1716,1301.7673385140536" stroke="#3e7bf7" stroke-width="14.582640720589533"/><title>Otros → Papel toalla: 4380</title></g><g style="mix-blend-mode: multiply;"><path d="M862,1191.3235262460976C1289,1191.3235262460976,1289,1003.3544802125251,1716,1003.3544802125251" stroke="#b6c5d7" stroke-width="26.634960220254854"/><title>Utensilios → Vaporera: 8000</title></g><g style="mix-blend-mode: multiply;"><path d="M862,1230.8897596532863C1289,1230.8897596532863,1289,1282.1514040931888,1716,1282.1514040931888" stroke="#b6c5d7" stroke-width="14.64922812114017"/><title>Utensilios → Taza: 4400</title></g><g style="mix-blend-mode: multiply;"><path d="M862,1155.53279845013C1289,1155.53279845013,1289,687.237338691705,1716,687.237338691705" stroke="#b6c5d7" stroke-width="44.946495371680065"/><title>Utensilios → Sarten: 13500</title></g><g style="mix-blend-mode: multiply;"><path d="M862,927.9432352830472C1289,927.9432352830472,1289,777.8559530521217,1716,777.8559530521217" stroke="#d2ad25" stroke-width="36.7853770916926"/><title>Cereales → Chocolate en polvo: 11048.75</title></g><g style="mix-blend-mode: multiply;"><path d="M862,745.1437057764037C1289,745.1437057764037,1289,860.9518558353301,1716,860.9518558353301" stroke="#3feb34" stroke-width="36.1602878690235"/><title>Verduras y frutas → Jugo de fruta: 10861</title></g><g style="mix-blend-mode: multiply;"><path d="M862,1240.528285882991C1289,1240.528285882991,1289,1484.2233034654957,1716,1484.2233034654957" stroke="#b6c5d7" stroke-width="4.627824338269281"/><title>Utensilios → Jabonera: 1390</title></g><g style="mix-blend-mode: multiply;"><path d="M862,1214.1030759744706C1289,1214.1030759744706,1289,1196.464598134999,1716,1196.464598134999" stroke="#b6c5d7" stroke-width="18.924139236491076"/><title>Utensilios → Corta uñas: 5684</title></g><g style="mix-blend-mode: multiply;"><path d="M862,1441.8822820915245C1289,1441.8822820915245,1289,1320.2179934252822,1716,1320.2179934252822" stroke="#f18c31" stroke-width="12.31866910186787"/><title>Snacks → Empanada: 3700</title></g><g style="mix-blend-mode: multiply;"><path d="M862,189.06587941382676C1289,189.06587941382676,1289,79.06587941382676,1716,79.06587941382676" stroke="#e1596a" stroke-width="158.13175882765307"/><title>Carnes, huevos y lacteos → Milanesa de carne: 47496</title></g><g style="mix-blend-mode: multiply;"><path d="M862,708.7520266904668C1289,708.7520266904668,1289,819.5601767493931,1716,819.5601767493931" stroke="#3feb34" stroke-width="36.62307030285043"/><title>Verduras y frutas → Brocoli: 11000</title></g><g style="mix-blend-mode: multiply;"><path d="M862,818.8468024183834C1289,818.8468024183834,1289,1352.8169248296617,1716,1352.8169248296617" stroke="#3feb34" stroke-width="9.90654051692104"/><title>Verduras y frutas → Zanahoria: 2975.5</title></g><g style="mix-blend-mode: multiply;"><path d="M862,1090.1323662216553C1289,1090.1323662216553,1289,1367.4313131266667,1716,1367.4313131266667" stroke="#71f2ec" stroke-width="9.3222360770892"/><title>Higiene → Tapones para oidos: 2800</title></g><g style="mix-blend-mode: multiply;"><path d="M862,1324.0181842820543C1289,1324.0181842820543,1289,734.5869254419101,1716,734.5869254419101" stroke="#8eea1e" stroke-width="39.75267812873037"/><title>Salud → Barra de proteina: 11940</title></g><g style="mix-blend-mode: multiply;"><path d="M862,595.720128631609C1289,595.720128631609,1289,1172.1684017979314,1716,1172.1684017979314" stroke="#e1596a" stroke-width="19.668253437644445"/><title>Carnes, huevos y lacteos → Suprema de pollo: 5907.5</title></g><g style="mix-blend-mode: multiply;"><path d="M862,1420.9322211932804C1289,1420.9322211932804,1289,935.7979958615681,1716,935.7979958615681" stroke="#f18c31" stroke-width="29.58145269462055"/><title>Snacks → Galletas: 8885</title></g><g style="mix-blend-mode: multiply;"><path d="M862,1281.0027235263428C1289,1281.0027235263428,1289,636.6249693145185,1716,636.6249693145185" stroke="#8eea1e" stroke-width="46.278243382692814"/><title>Salud → Vitamina: 13900</title></g><g style="mix-blend-mode: multiply;"><path d="M862,804.5463258076271C1289,804.5463258076271,1289,1220.2738741055402,1716,1220.2738741055402" stroke="#3feb34" stroke-width="18.694412704591375"/><title>Verduras y frutas → Manzana: 5615</title></g><g style="mix-blend-mode: multiply;"><path d="M862,1248.9299511474674C1289,1248.9299511474674,1289,1529.4741966579581,1716,1529.4741966579581" stroke="#b6c5d7" stroke-width="3.1595721561277323"/><title>Utensilios → Portaminas: 949</title></g><g style="mix-blend-mode: multiply;"><path d="M862,1252.5190120371467C1289,1252.5190120371467,1289,1564.6554102021505,1716,1564.6554102021505" stroke="#b6c5d7" stroke-width="1"/><title>Utensilios → Goma de borrar: 207</title></g><g style="mix-blend-mode: multiply;"><path d="M862,988.4957364875294C1289,988.4957364875294,1289,1432.497784380492,1716,1432.497784380492" stroke="#d2ad25" stroke-width="6.961712727569113"/><title>Cereales → Cereal: 2091</title></g><g style="mix-blend-mode: multiply;"><path d="M862,1392.3124217042089C1289,1392.3124217042089,1289,1381.3269736689783,1716,1381.3269736689783" stroke="#3e7bf7" stroke-width="8.469085007534161"/><title>Otros → Salsa bolognesa: 2543.75</title></g><g style="mix-blend-mode: multiply;"><path d="M862,977.4031078983C1289,977.4031078983,1289,1242.2328526832805,1716,1242.2328526832805" stroke="#d2ad25" stroke-width="15.223544450889415"/><title>Cereales → Fideos: 4572.5</title></g><g style="mix-blend-mode: multiply;"><path d="M862,1454.0011889917405C1289,1454.0011889917405,1289,1544.9826393685098,1716,1544.9826393685098" stroke="#f18c31" stroke-width="1.997622016519114"/><title>Snacks → Pionono: 600</title></g><g style="mix-blend-mode: multiply;"><path d="M862,623.5328534991032C1289,623.5328534991032,1289,1443.9750737690554,1716,1443.9750737690554" stroke="#e1596a" stroke-width="5.9928660495573425"/><title>Carnes, huevos y lacteos → Jamon: 1800</title></g><g style="mix-blend-mode: multiply;"><path d="M862,628.8598455431543C1289,628.8598455431543,1289,1474.5788322770886,1716,1474.5788322770886" stroke="#e1596a" stroke-width="4.6611180385446"/><title>Carnes, huevos y lacteos → Queso: 1400</title></g><g style="mix-blend-mode: multiply;"><path d="M862,1251.3420797324143C1289,1251.3420797324143,1289,1558.478477897418,1716,1558.478477897418" stroke="#b6c5d7" stroke-width="1.6646850137659284"/><title>Utensilios → Minas: 500</title></g><g style="mix-blend-mode: multiply;"><path d="M862,1245.0961815607645C1289,1245.0961815607645,1289,1493.7911991432693,1716,1493.7911991432693" stroke="#b6c5d7" stroke-width="4.507967017278134"/><title>Utensilios → Tijera: 1354</title></g><g style="mix-blend-mode: multiply;"><path d="M862,1079.7280848856183C1289,1079.7280848856183,1289,1337.1204912737087,1716,1337.1204912737087" stroke="#71f2ec" stroke-width="11.486326594984906"/><title>Higiene → Maquina de afeitar: 3450</title></g><g style="mix-blend-mode: multiply;"><path d="M862,574.2332068164253C1289,574.2332068164253,1289,1091.4674460171245,1716,1091.4674460171245" stroke="#e1596a" stroke-width="23.305590192723"/><title>Carnes, huevos y lacteos → Milanesa napolitana: 7000</title></g><g style="mix-blend-mode: multiply;"><path d="M862,1120.9068986656418C1289,1120.9068986656418,1289,1454.629509355314,1716,1454.629509355314" stroke="#71f2ec" stroke-width="5.316005122960116"/><title>Higiene → Antitranspirante: 1596.7</title></g></g><g><text x="866" y="372.6427648481454" text-anchor="start"><tspan alignment-baseline="middle" x="866" style="font-family: Arial, sans-serif; font-size: 10px; fill: black; font-weight: bold;">Carnes, huevos y lacteos</tspan></text><text x="8" y="322.67778009958295" text-anchor="start"><tspan alignment-baseline="middle" x="8" style="font-family: Arial, sans-serif; font-size: 10px; fill: black; font-weight: bold;">Feria Sabados</tspan></text><text x="8" y="661.8198982747841" text-anchor="start"><tspan alignment-baseline="middle" x="8" style="font-family: Arial, sans-serif; font-size: 10px; fill: black; font-weight: bold;">Coto</tspan></text><text x="8" y="869.66148420571" text-anchor="start"><tspan alignment-baseline="middle" x="8" style="font-family: Arial, sans-serif; font-size: 10px; fill: black; font-weight: bold;">Dia</tspan></text><text x="866" y="732.0428011865672" text-anchor="start"><tspan alignment-baseline="middle" x="866" style="font-family: Arial, sans-serif; font-size: 10px; fill: black; font-weight: bold;">Verduras y frutas</tspan></text><text x="866" y="910.3883327640789" text-anchor="start"><tspan alignment-baseline="middle" x="866" style="font-family: Arial, sans-serif; font-size: 10px; fill: black; font-weight: bold;">Cereales</tspan></text><text x="1712" y="79.06587941382685" text-anchor="end"><tspan alignment-baseline="middle" x="1712" style="font-family: Arial, sans-serif; font-size: 10px; fill: black; font-weight: bold;">Milanesa de carne</tspan></text><text x="8" y="1037.8212576489418" text-anchor="start"><tspan alignment-baseline="middle" x="8" style="font-family: Arial, sans-serif; font-size: 10px; fill: black; font-weight: bold;">Farmacity</tspan></text><text x="866" y="1062.518071807802" text-anchor="start"><tspan alignment-baseline="middle" x="866" style="font-family: Arial, sans-serif; font-size: 10px; fill: black; font-weight: bold;">Higiene</tspan></text><text x="1712" y="226.2899082499328" text-anchor="end"><tspan alignment-baseline="middle" x="1712" style="font-family: Arial, sans-serif; font-size: 10px; fill: black; font-weight: bold;">Huevo</tspan></text><text x="8" y="1174.3863083419042" text-anchor="start"><tspan alignment-baseline="middle" x="8" style="font-family: Arial, sans-serif; font-size: 10px; fill: black; font-weight: bold;">Carrefour Express</tspan></text><text x="866" y="1192.9615762996432" text-anchor="start"><tspan alignment-baseline="middle" x="866" style="font-family: Arial, sans-serif; font-size: 10px; fill: black; font-weight: bold;">Utensilios</tspan></text><text x="1712" y="342.76221082674067" text-anchor="end"><tspan alignment-baseline="middle" x="1712" style="font-family: Arial, sans-serif; font-size: 10px; fill: black; font-weight: bold;">Milanesa de pollo</tspan></text><text x="866" y="1302.5087892191848" text-anchor="start"><tspan alignment-baseline="middle" x="866" style="font-family: Arial, sans-serif; font-size: 10px; fill: black; font-weight: bold;">Salud</tspan></text><text x="8" y="1284.7841753034802" text-anchor="start"><tspan alignment-baseline="middle" x="8" style="font-family: Arial, sans-serif; font-size: 10px; fill: black; font-weight: bold;">Bazar La Luna</tspan></text><text x="1712" y="436.45160101144774" text-anchor="end"><tspan alignment-baseline="middle" x="1712" style="font-family: Arial, sans-serif; font-size: 10px; fill: black; font-weight: bold;">Pan</tspan></text><text x="1712" y="517.5788619110238" text-anchor="end"><tspan alignment-baseline="middle" x="1712" style="font-family: Arial, sans-serif; font-size: 10px; fill: black; font-weight: bold;">Leche</tspan></text><text x="1712" y="583.4083667017966" text-anchor="end"><tspan alignment-baseline="middle" x="1712" style="font-family: Arial, sans-serif; font-size: 10px; fill: black; font-weight: bold;">Banana</tspan></text><text x="866" y="1376.6477357246717" text-anchor="start"><tspan alignment-baseline="middle" x="866" style="font-family: Arial, sans-serif; font-size: 10px; fill: black; font-weight: bold;">Otros</tspan></text><text x="866" y="1430.570747422985" text-anchor="start"><tspan alignment-baseline="middle" x="866" style="font-family: Arial, sans-serif; font-size: 10px; fill: black; font-weight: bold;">Snacks</tspan></text><text x="1712" y="636.6249693145185" text-anchor="end"><tspan alignment-baseline="middle" x="1712" style="font-family: Arial, sans-serif; font-size: 10px; fill: black; font-weight: bold;">Vitamina</tspan></text><text x="1712" y="687.237338691705" text-anchor="end"><tspan alignment-baseline="middle" x="1712" style="font-family: Arial, sans-serif; font-size: 10px; fill: black; font-weight: bold;">Sarten</tspan></text><text x="1712" y="734.5869254419101" text-anchor="end"><tspan alignment-baseline="middle" x="1712" style="font-family: Arial, sans-serif; font-size: 10px; fill: black; font-weight: bold;">Barra de proteina</tspan></text><text x="1712" y="777.8559530521215" text-anchor="end"><tspan alignment-baseline="middle" x="1712" style="font-family: Arial, sans-serif; font-size: 10px; fill: black; font-weight: bold;">Chocolate en polvo</tspan></text><text x="1712" y="819.5601767493931" text-anchor="end"><tspan alignment-baseline="middle" x="1712" style="font-family: Arial, sans-serif; font-size: 10px; fill: black; font-weight: bold;">Brocoli</tspan></text><text x="1712" y="860.9518558353301" text-anchor="end"><tspan alignment-baseline="middle" x="1712" style="font-family: Arial, sans-serif; font-size: 10px; fill: black; font-weight: bold;">Jugo de fruta</tspan></text><text x="1712" y="900.0196346420498" text-anchor="end"><tspan alignment-baseline="middle" x="1712" style="font-family: Arial, sans-serif; font-size: 10px; fill: black; font-weight: bold;">Mandarina</tspan></text><text x="1712" y="935.7979958615681" text-anchor="end"><tspan alignment-baseline="middle" x="1712" style="font-family: Arial, sans-serif; font-size: 10px; fill: black; font-weight: bold;">Galletas</tspan></text><text x="1712" y="970.3128611556381" text-anchor="end"><tspan alignment-baseline="middle" x="1712" style="font-family: Arial, sans-serif; font-size: 10px; fill: black; font-weight: bold;">Espuma de afeitar</tspan></text><text x="1712" y="1003.354480212525" text-anchor="end"><tspan alignment-baseline="middle" x="1712" style="font-family: Arial, sans-serif; font-size: 10px; fill: black; font-weight: bold;">Vaporera</tspan></text><text x="1712" y="1034.0155996997269" text-anchor="end"><tspan alignment-baseline="middle" x="1712" style="font-family: Arial, sans-serif; font-size: 10px; fill: black; font-weight: bold;">Shampoo</tspan></text><text x="1712" y="1063.0869449987822" text-anchor="end"><tspan alignment-baseline="middle" x="1712" style="font-family: Arial, sans-serif; font-size: 10px; fill: black; font-weight: bold;">Arroz</tspan></text><text x="8" y="1344.552312256379" text-anchor="start"><tspan alignment-baseline="middle" x="8" style="font-family: Arial, sans-serif; font-size: 10px; fill: black; font-weight: bold;">Gastronovo Belgrano</tspan></text><text x="1712" y="1091.4674460171245" text-anchor="end"><tspan alignment-baseline="middle" x="1712" style="font-family: Arial, sans-serif; font-size: 10px; fill: black; font-weight: bold;">Milanesa napolitana</tspan></text><text x="1712" y="1119.556627158058" text-anchor="end"><tspan alignment-baseline="middle" x="1712" style="font-family: Arial, sans-serif; font-size: 10px; fill: black; font-weight: bold;">Acondicionador</tspan></text><text x="1712" y="1146.6636441408696" text-anchor="end"><tspan alignment-baseline="middle" x="1712" style="font-family: Arial, sans-serif; font-size: 10px; fill: black; font-weight: bold;">Aceite de girasol</tspan></text><text x="8" y="1371.0392340715625" text-anchor="start"><tspan alignment-baseline="middle" x="8" style="font-family: Arial, sans-serif; font-size: 10px; fill: black; font-weight: bold;">Res</tspan></text><text x="1712" y="1172.1684017979314" text-anchor="end"><tspan alignment-baseline="middle" x="1712" style="font-family: Arial, sans-serif; font-size: 10px; fill: black; font-weight: bold;">Suprema de pollo</tspan></text><text x="1712" y="1196.464598134999" text-anchor="end"><tspan alignment-baseline="middle" x="1712" style="font-family: Arial, sans-serif; font-size: 10px; fill: black; font-weight: bold;">Corta uñas</tspan></text><text x="1712" y="1220.2738741055402" text-anchor="end"><tspan alignment-baseline="middle" x="1712" style="font-family: Arial, sans-serif; font-size: 10px; fill: black; font-weight: bold;">Manzana</tspan></text><text x="8" y="1395.195596867474" text-anchor="start"><tspan alignment-baseline="middle" x="8" style="font-family: Arial, sans-serif; font-size: 10px; fill: black; font-weight: bold;">Fruteria Colon</tspan></text><text x="1712" y="1242.2328526832807" text-anchor="end"><tspan alignment-baseline="middle" x="1712" style="font-family: Arial, sans-serif; font-size: 10px; fill: black; font-weight: bold;">Fideos</tspan></text><text x="1712" y="1262.3357074706719" text-anchor="end"><tspan alignment-baseline="middle" x="1712" style="font-family: Arial, sans-serif; font-size: 10px; fill: black; font-weight: bold;">Dulce de leche</tspan></text><text x="1712" y="1282.1514040931888" text-anchor="end"><tspan alignment-baseline="middle" x="1712" style="font-family: Arial, sans-serif; font-size: 10px; fill: black; font-weight: bold;">Taza</tspan></text><text x="1712" y="1301.7673385140536" text-anchor="end"><tspan alignment-baseline="middle" x="1712" style="font-family: Arial, sans-serif; font-size: 10px; fill: black; font-weight: bold;">Papel toalla</tspan></text><text x="8" y="1415.6771674954973" text-anchor="start"><tspan alignment-baseline="middle" x="8" style="font-family: Arial, sans-serif; font-size: 10px; fill: black; font-weight: bold;">Empanadaza</tspan></text><text x="1712" y="1320.2179934252822" text-anchor="end"><tspan alignment-baseline="middle" x="1712" style="font-family: Arial, sans-serif; font-size: 10px; fill: black; font-weight: bold;">Empanada</tspan></text><text x="1712" y="1337.1204912737087" text-anchor="end"><tspan alignment-baseline="middle" x="1712" style="font-family: Arial, sans-serif; font-size: 10px; fill: black; font-weight: bold;">Maquina de afeitar</tspan></text><text x="8" y="1432.1634940904823" text-anchor="start"><tspan alignment-baseline="middle" x="8" style="font-family: Arial, sans-serif; font-size: 10px; fill: black; font-weight: bold;">Supermercado Orient</tspan></text><text x="8" y="1447.5011880259688" text-anchor="start"><tspan alignment-baseline="middle" x="8" style="font-family: Arial, sans-serif; font-size: 10px; fill: black; font-weight: bold;">Mercado la Oficina</tspan></text><text x="8" y="1462.505944958702" text-anchor="start"><tspan alignment-baseline="middle" x="8" style="font-family: Arial, sans-serif; font-size: 10px; fill: black; font-weight: bold;">Tienda peruana</tspan></text><text x="1712" y="1352.8169248296617" text-anchor="end"><tspan alignment-baseline="middle" x="1712" style="font-family: Arial, sans-serif; font-size: 10px; fill: black; font-weight: bold;">Zanahoria</tspan></text><text x="1712" y="1367.4313131266667" text-anchor="end"><tspan alignment-baseline="middle" x="1712" style="font-family: Arial, sans-serif; font-size: 10px; fill: black; font-weight: bold;">Tapones para oidos</tspan></text><text x="1712" y="1381.3269736689786" text-anchor="end"><tspan alignment-baseline="middle" x="1712" style="font-family: Arial, sans-serif; font-size: 10px; fill: black; font-weight: bold;">Salsa bolognesa</tspan></text><text x="1712" y="1394.7232287071604" text-anchor="end"><tspan alignment-baseline="middle" x="1712" style="font-family: Arial, sans-serif; font-size: 10px; fill: black; font-weight: bold;">Jabon</tspan></text><text x="1712" y="1407.805274448994" text-anchor="end"><tspan alignment-baseline="middle" x="1712" style="font-family: Arial, sans-serif; font-size: 10px; fill: black; font-weight: bold;">Crema dental</tspan></text><text x="1712" y="1420.37126783656" text-anchor="end"><tspan alignment-baseline="middle" x="1712" style="font-family: Arial, sans-serif; font-size: 10px; fill: black; font-weight: bold;">Detergente</tspan></text><text x="1712" y="1432.497784380492" text-anchor="end"><tspan alignment-baseline="middle" x="1712" style="font-family: Arial, sans-serif; font-size: 10px; fill: black; font-weight: bold;">Cereal</tspan></text><text x="1712" y="1443.9750737690551" text-anchor="end"><tspan alignment-baseline="middle" x="1712" style="font-family: Arial, sans-serif; font-size: 10px; fill: black; font-weight: bold;">Jamon</tspan></text><text x="1712" y="1454.629509355314" text-anchor="end"><tspan alignment-baseline="middle" x="1712" style="font-family: Arial, sans-serif; font-size: 10px; fill: black; font-weight: bold;">Antitranspirante</tspan></text><text x="1712" y="1464.7678925873051" text-anchor="end"><tspan alignment-baseline="middle" x="1712" style="font-family: Arial, sans-serif; font-size: 10px; fill: black; font-weight: bold;">Budin</tspan></text><text x="1712" y="1474.5788322770886" text-anchor="end"><tspan alignment-baseline="middle" x="1712" style="font-family: Arial, sans-serif; font-size: 10px; fill: black; font-weight: bold;">Queso</tspan></text><text x="1712" y="1484.2233034654955" text-anchor="end"><tspan alignment-baseline="middle" x="1712" style="font-family: Arial, sans-serif; font-size: 10px; fill: black; font-weight: bold;">Jabonera</tspan></text><text x="1712" y="1493.7911991432693" text-anchor="end"><tspan alignment-baseline="middle" x="1712" style="font-family: Arial, sans-serif; font-size: 10px; fill: black; font-weight: bold;">Tijera</tspan></text><text x="1712" y="1503.2925074204923" text-anchor="end"><tspan alignment-baseline="middle" x="1712" style="font-family: Arial, sans-serif; font-size: 10px; fill: black; font-weight: bold;">Lavavajillas</tspan></text><text x="1712" y="1512.5873947560085" text-anchor="end"><tspan alignment-baseline="middle" x="1712" style="font-family: Arial, sans-serif; font-size: 10px; fill: black; font-weight: bold;">Atun</tspan></text><text x="1712" y="1521.2646839514175" text-anchor="end"><tspan alignment-baseline="middle" x="1712" style="font-family: Arial, sans-serif; font-size: 10px; fill: black; font-weight: bold;">Te</tspan></text><text x="1712" y="1529.4741966579581" text-anchor="end"><tspan alignment-baseline="middle" x="1712" style="font-family: Arial, sans-serif; font-size: 10px; fill: black; font-weight: bold;">Portaminas</tspan></text><text x="1712" y="1537.5189055481362" text-anchor="end"><tspan alignment-baseline="middle" x="1712" style="font-family: Arial, sans-serif; font-size: 10px; fill: black; font-weight: bold;">Sal</tspan></text><text x="1712" y="1544.9826393685098" text-anchor="end"><tspan alignment-baseline="middle" x="1712" style="font-family: Arial, sans-serif; font-size: 10px; fill: black; font-weight: bold;">Pionono</tspan></text><text x="1712" y="1551.8137928836522" text-anchor="end"><tspan alignment-baseline="middle" x="1712" style="font-family: Arial, sans-serif; font-size: 10px; fill: black; font-weight: bold;">Bolsa de tela</tspan></text><text x="1712" y="1558.478477897418" text-anchor="end"><tspan alignment-baseline="middle" x="1712" style="font-family: Arial, sans-serif; font-size: 10px; fill: black; font-weight: bold;">Minas</tspan></text><text x="1712" y="1564.6554102021505" text-anchor="end"><tspan alignment-baseline="middle" x="1712" style="font-family: Arial, sans-serif; font-size: 10px; fill: black; font-weight: bold;">Goma de borrar</tspan></text></g><g><text x="860" y="106.00000000000023" text-anchor="middle" style="font-family: Arial, sans-serif; font-size: 12px; fill: rgb(123, 123, 123); font-weight: bold;">Categoria</text><text x="2" y="93.50000000000023" text-anchor="middle" style="font-family: Arial, sans-serif; font-size: 12px; fill: rgb(123, 123, 123); font-weight: bold;">Tienda</text><text x="1718" y="-3.9999999999997726" text-anchor="middle" style="font-family: Arial, sans-serif; font-size: 12px; fill: rgb(123, 123, 123); font-weight: bold;">Subcategoria</text></g></g></svg>
