<svg xmlns="http://www.w3.org/2000/svg" width="1000" height="1440"><rect width="1000" height="1440" x="0" y="0" fill="#FFFFFF" id="background"/><g transform="translate(30,25)" id="visualization"><g><rect x="458" y="109.99999999999977" height="461.128518435675" width="4" fill="black"><title>Carnes, huevos y lacteos: 157773.25</title></rect><rect x="0" y="97.5" height="395.3503009381988" width="4" fill="black"><title>Feria Sabados: 135267.5</title></rect><rect x="0" y="497.8503009381988" height="191.31143326253647" width="4" fill="black"><title>Coto: 65456.42999999999</title></rect><rect x="0" y="694.1617342007353" height="164.82264890626504" width="4" fill="black"><title>Dia: 56393.399999999994</title></rect><rect x="458" y="576.1285184356748" height="161.10055299819555" width="4" fill="black"><title>Verduras y frutas: 55119.9</title></rect><rect x="458" y="742.2290714338703" height="143.24656351193948" width="4" fill="black"><title>Cereales: 49011.229999999996</title></rect><rect x="916" y="0" height="138.817956222749" width="4" fill="black"><title>Milanesa de carne: 47496</title></rect><rect x="0" y="863.9843831070003" height="121.64107545971422" width="4" fill="black"><title>Farmacity: 41619</title></rect><rect x="458" y="890.4756349458098" height="115.07282564879574" width="4" fill="black"><title>Higiene: 39371.7</title></rect><rect x="916" y="143.817956222749" height="110.88835394751334" width="4" fill="black"><title>Huevo: 37940</title></rect><rect x="0" y="990.6254585667145" height="109.35099827602176" width="4" fill="black"><title>Carrefour Express: 37414</title></rect><rect x="458" y="1010.5484605946056" height="105.17149521474221" width="4" fill="black"><title>Utensilios: 35984</title></rect><rect x="916" y="259.7063101702623" height="84.82637576749295" width="4" fill="black"><title>Milanesa de pollo: 29023</title></rect><rect x="458" y="1120.7199558093478" height="78.38468014017826" width="4" fill="black"><title>Salud: 26819</title></rect><rect x="0" y="1104.9764568427363" height="75.69869180918795" width="4" fill="black"><title>Bazar La Luna: 25900</title></rect><rect x="916" y="349.5326859377553" height="70.88782074000818" width="4" fill="black"><title>Pan: 24253.98</title></rect><rect x="916" y="425.42050667776346" height="62.77072893100308" width="4" fill="black"><title>Leche: 21476.75</title></rect><rect x="916" y="493.19123560876653" height="44.02916497646072" width="4" fill="black"><title>Banana: 15064.400000000001</title></rect><rect x="458" y="1204.104635949526" height="43.00430990762311" width="4" fill="black"><title>Otros: 14713.75</title></rect><rect x="458" y="1252.1089458571491" height="42.89105414285086" width="4" fill="black"><title>Snacks: 14675</title></rect><rect x="916" y="542.2204005852273" height="40.62593884740204" width="4" fill="black"><title>Vitamina: 13900</title></rect><rect x="916" y="587.8463394326293" height="39.456847082009176" width="4" fill="black"><title>Sarten: 13500</title></rect><rect x="916" y="632.3031865146385" height="34.897389196976974" width="4" fill="black"><title>Barra de proteina: 11940</title></rect><rect x="916" y="672.2005757116154" height="32.29250660721107" width="4" fill="black"><title>Chocolate en polvo: 11048.75</title></rect><rect x="916" y="709.4930823188265" height="32.15002354830381" width="4" fill="black"><title>Brocoli: 11000</title></rect><rect x="916" y="746.6431058671303" height="31.743764159829766" width="4" fill="black"><title>Jugo de fruta: 10861</title></rect><rect x="916" y="783.3868700269601" height="28.069893287082664" width="4" fill="black"><title>Mandarina: 9604</title></rect><rect x="916" y="816.4567633140427" height="25.968450838789067" width="4" fill="black"><title>Galletas: 8885</title></rect><rect x="916" y="847.4252141528318" height="25.8515416622497" width="4" fill="black"><title>Espuma de afeitar: 8845</title></rect><rect x="916" y="878.2767558150815" height="23.381835307857273" width="4" fill="black"><title>Vaporera: 8000</title></rect><rect x="916" y="906.6585911229388" height="21.672038600970268" width="4" fill="black"><title>Shampoo: 7415</title></rect><rect x="916" y="933.330629723909" height="20.590628717981872" width="4" fill="black"><title>Arroz: 7045</title></rect><rect x="0" y="1185.6751486519242" height="20.45910589437517" width="4" fill="black"><title>Gastronovo Belgrano: 7000</title></rect><rect x="916" y="958.9212584418909" height="20.45910589437517" width="4" fill="black"><title>Milanesa napolitana: 7000</title></rect><rect x="916" y="984.3803643362661" height="20.079151070622515" width="4" fill="black"><title>Acondicionador: 6870</title></rect><rect x="916" y="1009.4595154068886" height="18.734695540420716" width="4" fill="black"><title>Aceite de girasol: 6410</title></rect><rect x="0" y="1211.1342545462994" height="17.266024010145884" width="4" fill="black"><title>Res: 5907.5</title></rect><rect x="916" y="1033.1942109473093" height="17.266024010145884" width="4" fill="black"><title>Suprema de pollo: 5907.5</title></rect><rect x="916" y="1055.4602349574552" height="16.612793986232646" width="4" fill="black"><title>Corta uñas: 5684</title></rect><rect x="916" y="1077.0730289436879" height="16.411125656702325" width="4" fill="black"><title>Manzana: 5615</title></rect><rect x="0" y="1233.4002785564453" height="16.36728471550009" width="4" fill="black"><title>Fruteria Colon: 5600</title></rect><rect x="916" y="1098.4841546003902" height="13.364180243147302" width="4" fill="black"><title>Fideos: 4572.5</title></rect><rect x="916" y="1116.8483348435375" height="13.152282360669687" width="4" fill="black"><title>Dulce de leche: 4500</title></rect><rect x="916" y="1135.0006172042072" height="12.860009419321614" width="4" fill="black"><title>Taza: 4400</title></rect><rect x="916" y="1152.8606266235288" height="12.801554831051817" width="4" fill="black"><title>Papel toalla: 4380</title></rect><rect x="0" y="1254.7675632719454" height="10.81409882988396" width="4" fill="black"><title>Empanadaza: 3700</title></rect><rect x="916" y="1170.6621814545806" height="10.81409882988396" width="4" fill="black"><title>Empanada: 3700</title></rect><rect x="916" y="1186.4762802844646" height="10.083416476513548" width="4" fill="black"><title>Maquina de afeitar: 3450</title></rect><rect x="0" y="1270.5816621018294" height="9.352734123142909" width="4" fill="black"><title>Supermercado Orient: 3200</title></rect><rect x="0" y="1284.9343962249723" height="8.797415534581205" width="4" fill="black"><title>Mercado la Oficina: 3010</title></rect><rect x="0" y="1298.7318117595535" height="8.768188240446534" width="4" fill="black"><title>Tienda peruana: 3000</title></rect><rect x="916" y="1201.559696760978" height="8.696581369816158" width="4" fill="black"><title>Zanahoria: 2975.5</title></rect><rect x="916" y="1215.2562781307943" height="8.18364235775016" width="4" fill="black"><title>Tapones para oidos: 2800</title></rect><rect x="916" y="1228.4399204885444" height="7.434692945545294" width="4" fill="black"><title>Salsa bolognesa: 2543.75</title></rect><rect x="916" y="1240.8746134340897" height="7.306823533705483" width="4" fill="black"><title>Jabon: 2500</title></rect><rect x="916" y="1253.1814369677952" height="6.88302776875048" width="4" fill="black"><title>Crema dental: 2355</title></rect><rect x="916" y="1265.0644647365457" height="6.4007774155259085" width="4" fill="black"><title>Detergente: 2190</title></rect><rect x="916" y="1276.4652421520716" height="6.11142720359112" width="4" fill="black"><title>Cereal: 2091</title></rect><rect x="916" y="1287.5766693556627" height="5.2609129442678295" width="4" fill="black"><title>Jamon: 1800</title></rect><rect x="916" y="1297.8375822999305" height="4.666722054506863" width="4" fill="black"><title>Antitranspirante: 1596.7</title></rect><rect x="916" y="1307.5043043544374" height="4.354866826088482" width="4" fill="black"><title>Budin: 1490</title></rect><rect x="916" y="1316.859171180526" height="4.09182117887508" width="4" fill="black"><title>Queso: 1400</title></rect><rect x="916" y="1325.950992359401" height="4.062593884740181" width="4" fill="black"><title>Jabonera: 1390</title></rect><rect x="916" y="1335.0135862441412" height="3.9573756258548656" width="4" fill="black"><title>Tijera: 1354</title></rect><rect x="916" y="1343.970961869996" height="3.9456847082008153" width="4" fill="black"><title>Lavavajillas: 1350</title></rect><rect x="916" y="1352.9166465781968" height="3.594957178583172" width="4" fill="black"><title>Atun: 1230</title></rect><rect x="916" y="1361.51160375678" height="2.8613520957990204" width="4" fill="black"><title>Te: 979</title></rect><rect x="916" y="1369.372955852579" height="2.7736702133945528" width="4" fill="black"><title>Portaminas: 949</title></rect><rect x="916" y="1377.1466260659736" height="2.572001883864232" width="4" fill="black"><title>Sal: 880</title></rect><rect x="916" y="1384.7186279498378" height="1.7536376480893523" width="4" fill="black"><title>Pionono: 600</title></rect><rect x="916" y="1391.4722655979272" height="1.4613647067410511" width="4" fill="black"><title>Bolsa de tela: 500</title></rect><rect x="916" y="1397.9336303046682" height="1.4613647067410511" width="4" fill="black"><title>Minas: 500</title></rect><rect x="916" y="1404.3949950114093" height="0.6050049885907356" width="4" fill="black"><title>Goma de borrar: 207</title></rect></g><g fill="none" stroke-opacity="0.7"><g style="mix-blend-mode: multiply;"><path d="M4,1000.4385225724809C231,1000.4385225724809,231,879.2575281186265,458,879.2575281186265" stroke="#f8e71c" stroke-width="12.43621365436661"/><title>Carrefour Express → Cereales: 4255</title></g><g style="mix-blend-mode: multiply;"><path d="M4,1074.111762898126C231,1074.111762898126,231,1197.6739599016266,458,1197.6739599016266" stroke="#f8e71c" stroke-width="2.861352095799039"/><title>Carrefour Express → Salud: 979</title></g><g style="mix-blend-mode: multiply;"><path d="M4,1097.799023429692C231,1097.799023429692,231,1282.0084677570717,458,1282.0084677570717" stroke="#f8e71c" stroke-width="4.354866826088426"/><title>Carrefour Express → Snacks: 1490</title></g><g style="mix-blend-mode: multiply;"><path d="M4,1039.6688581249452C231,1039.6688581249452,231,972.5362318693245,458,972.5362318693245" stroke="#f8e71c" stroke-width="66.0244574505621"/><title>Carrefour Express → Higiene: 22590</title></g><g style="mix-blend-mode: multiply;"><path d="M4,1085.5820144813367C231,1085.5820144813367,231,1237.069370321838,458,1237.069370321838" stroke="#f8e71c" stroke-width="20.07915107062247"/><title>Carrefour Express → Otros: 6870</title></g><g style="mix-blend-mode: multiply;"><path d="M4,793.9390400099547C231,793.9390400099547,231,859.7994570483689,458,859.7994570483689" stroke="#f03f73" stroke-width="26.47992848614841"/><title>Dia → Cereales: 9060</title></g><g style="mix-blend-mode: multiply;"><path d="M4,706.49565232563C231,706.49565232563,231,508.12177910453295,458,508.12177910453295" stroke="#f03f73" stroke-width="24.667836249789467"/><title>Dia → Carnes, huevos y lacteos: 8440</title></g><g style="mix-blend-mode: multiply;"><path d="M4,825.2706993224836C231,825.2706993224836,231,1219.2845618407991,458,1219.2845618407991" stroke="#f03f73" stroke-width="15.490465891455472"/><title>Dia → Otros: 5300</title></g><g style="mix-blend-mode: multiply;"><path d="M4,812.3522353148925C231,812.3522353148925,231,900.3155880621803,458,900.3155880621803" stroke="#f03f73" stroke-width="10.346462123726862"/><title>Dia → Higiene: 3540</title></g><g style="mix-blend-mode: multiply;"><path d="M4,992.4229371560061C231,992.4229371560061,231,522.2531758187192,458,522.2531758187192" stroke="#f8e71c" stroke-width="3.5949571785830625"/><title>Carrefour Express → Carnes, huevos y lacteos: 1230</title></g><g style="mix-blend-mode: multiply;"><path d="M4,261.8582272024628C231,261.8582272024628,231,274.35822720246256,458,274.35822720246256" stroke="#c0e8e8" stroke-width="328.71645440492557"/><title>Feria Sabados → Carnes, huevos y lacteos: 112469</title></g><g style="mix-blend-mode: multiply;"><path d="M4,459.5333776715621C231,459.5333776715621,231,609.4454417023113,458,609.4454417023113" stroke="#c0e8e8" stroke-width="66.63384653327313"/><title>Feria Sabados → Verduras y frutas: 22798.5</title></g><g style="mix-blend-mode: multiply;"><path d="M4,881.0019751170003C231,881.0019751170003,231,922.5064111340436,458,922.5064111340436" stroke="#94f82a" stroke-width="34.035184019999804"/><title>Farmacity → Higiene: 11645</title></g><g style="mix-blend-mode: multiply;"><path d="M4,1142.8258027473303C231,1142.8258027473303,231,1069.0731943701724,458,1069.0731943701724" stroke="#9b9b9b" stroke-width="75.69869180918806"/><title>Bazar La Luna → Utensilios: 25900</title></g><g style="mix-blend-mode: multiply;"><path d="M4,614.5486463912438C231,614.5486463912438,231,794.3942821195825,458,794.3942821195825" stroke="#f48b4d" stroke-width="104.33042137142444"/><title>Coto → Cereales: 35696.229999999996</title></g><g style="mix-blend-mode: multiply;"><path d="M4,526.3860042255552C231,526.3860042255552,231,467.2521576922818,458,467.2521576922818" stroke="#f48b4d" stroke-width="57.07140657471285"/><title>Coto → Carnes, huevos y lacteos: 19526.75</title></g><g style="mix-blend-mode: multiply;"><path d="M4,558.6525716092217C231,558.6525716092217,231,646.4932290652579,458,646.4932290652579" stroke="#f48b4d" stroke-width="7.461728192619966"/><title>Coto → Verduras y frutas: 2553</title></g><g style="mix-blend-mode: multiply;"><path d="M4,675.6769913692818C231,675.6769913692818,231,1014.8448728324244,458,1014.8448728324244" stroke="#f48b4d" stroke-width="8.592824475637563"/><title>Coto → Utensilios: 2940</title></g><g style="mix-blend-mode: multiply;"><path d="M4,1260.1746126868875C231,1260.1746126868875,231,1289.5929505850581,458,1289.5929505850581" stroke="#dedd32" stroke-width="10.814098829884008"/><title>Empanadaza → Snacks: 3700</title></g><g style="mix-blend-mode: multiply;"><path d="M4,749.7643231087027C231,749.7643231087027,231,681.1588458197457,458,681.1588458197457" stroke="#f03f73" stroke-width="61.86950531635585"/><title>Dia → Verduras y frutas: 21168.399999999998</title></g><g style="mix-blend-mode: multiply;"><path d="M4,904.0608488246677C231,904.0608488246677,231,1025.1825667679109,458,1025.1825667679109" stroke="#94f82a" stroke-width="12.082563395335269"/><title>Farmacity → Utensilios: 4134</title></g><g style="mix-blend-mode: multiply;"><path d="M4,947.8637945445248C231,947.8637945445248,231,1158.4816198315373,458,1158.4816198315373" stroke="#94f82a" stroke-width="75.52332804437913"/><title>Farmacity → Salud: 25840</title></g><g style="mix-blend-mode: multiply;"><path d="M4,1219.7672665513724C231,1219.7672665513724,231,553.1427723074588,458,553.1427723074588" stroke="#ba2208" stroke-width="17.266024010145888"/><title>Res → Carnes, huevos y lacteos: 5907.5</title></g><g style="mix-blend-mode: multiply;"><path d="M4,846.0001576876059C231,846.0001576876059,231,1266.846808924633,458,1266.846808924633" stroke="#f03f73" stroke-width="25.968450838789032"/><title>Dia → Snacks: 8885</title></g><g style="mix-blend-mode: multiply;"><path d="M4,1303.1159058797766C231,1303.1159058797766,231,732.844977313647,458,732.844977313647" stroke="#900c00" stroke-width="8.768188240446493"/><title>Tienda peruana → Verduras y frutas: 3000</title></g><g style="mix-blend-mode: multiply;"><path d="M4,1289.333103992263C231,1289.333103992263,231,1111.3212480420573,458,1111.3212480420573" stroke="#db3d11" stroke-width="8.797415534581315"/><title>Mercado la Oficina → Utensilios: 3010</title></g><g style="mix-blend-mode: multiply;"><path d="M4,1241.5839209141955C231,1241.5839209141955,231,720.2772408356736,458,720.2772408356736" stroke="#ff821d" stroke-width="16.367284715500123"/><title>Fruteria Colon → Verduras y frutas: 5600</title></g><g style="mix-blend-mode: multiply;"><path d="M4,683.6907500798733C231,683.6907500798733,231,1207.8219824222986,458,1207.8219824222986" stroke="#f48b4d" stroke-width="7.434692945545256"/><title>Coto → Otros: 2543.75</title></g><g style="mix-blend-mode: multiply;"><path d="M4,688.2849153766906C231,688.2849153766906,231,1252.9857646811938,458,1252.9857646811938" stroke="#f48b4d" stroke-width="1.7536376480892988"/><title>Coto → Snacks: 600</title></g><g style="mix-blend-mode: multiply;"><path d="M4,1275.2580291634008C231,1275.2580291634008,231,566.4521513741032,458,566.4521513741032" stroke="#9d1000" stroke-width="9.352734123142927"/><title>Supermercado Orient → Carnes, huevos y lacteos: 3200</title></g><g style="mix-blend-mode: multiply;"><path d="M4,1195.9047015991118C231,1195.9047015991118,231,534.2802073551983,458,534.2802073551983" stroke="#f65f18" stroke-width="20.459105894375153"/><title>Gastronovo Belgrano → Carnes, huevos y lacteos: 7000</title></g><g style="mix-blend-mode: multiply;"><path d="M4,669.0472181042095C231,669.0472181042095,231,892.8089959730632,458,892.8089959730632" stroke="#f48b4d" stroke-width="4.666722054506972"/><title>Coto → Higiene: 1596.7</title></g><g style="mix-blend-mode: multiply;"><path d="M462,777.6729818038744C689,777.6729818038744,689,384.97659630775934,916,384.97659630775934" stroke="#d2ad25" stroke-width="70.88782074000815"/><title>Cereales → Pan: 24253.98</title></g><g style="mix-blend-mode: multiply;"><path d="M462,1197.6739599016264C689,1197.6739599016264,689,1362.9422798046796,916,1362.9422798046796" stroke="#8eea1e" stroke-width="2.861352095799039"/><title>Salud → Te: 979</title></g><g style="mix-blend-mode: multiply;"><path d="M462,1291.0689289388663C689,1291.0689289388663,689,1309.6817377674815,916,1309.6817377674815" stroke="#f18c31" stroke-width="4.354866826088426"/><title>Snacks → Budin: 1490</title></g><g style="mix-blend-mode: multiply;"><path d="M462,987.0937625319964C689,987.0937625319964,689,1256.6229508521706,916,1256.6229508521706" stroke="#71f2ec" stroke-width="6.883027768750497"/><title>Higiene → Crema dental: 2355</title></g><g style="mix-blend-mode: multiply;"><path d="M462,979.9988368807685C689,979.9988368807685,689,1244.5280252009425,916,1244.5280252009425" stroke="#71f2ec" stroke-width="7.306823533705411"/><title>Higiene → Jabon: 2500</title></g><g style="mix-blend-mode: multiply;"><path d="M462,948.038790744341C689,948.038790744341,689,994.4199398715773,916,994.4199398715773" stroke="#71f2ec" stroke-width="20.07915107062247"/><title>Higiene → Acondicionador: 6870</title></g><g style="mix-blend-mode: multiply;"><path d="M462,927.1631959085446C689,927.1631959085446,689,917.4946104234239,916,917.4946104234239" stroke="#71f2ec" stroke-width="21.67203860097025"/><title>Higiene → Shampoo: 7415</title></g><g style="mix-blend-mode: multiply;"><path d="M462,1246.3782635037787C689,1246.3782635037787,689,1392.2029479512978,916,1392.2029479512978" stroke="#3e7bf7" stroke-width="1.4613647067410822"/><title>Otros → Bolsa de tela: 500</title></g><g style="mix-blend-mode: multiply;"><path d="M462,855.7047131400805C689,855.7047131400805,689,943.6259440829,916,943.6259440829" stroke="#d2ad25" stroke-width="20.59062871798185"/><title>Cereales → Arroz: 7045</title></g><g style="mix-blend-mode: multiply;"><path d="M462,475.9180504032564C689,475.9180504032564,689,456.805871143265,916,456.805871143265" stroke="#e1596a" stroke-width="62.77072893100308"/><title>Carnes, huevos y lacteos → Leche: 21476.75</title></g><g style="mix-blend-mode: multiply;"><path d="M462,1244.361580208476C689,1244.361580208476,689,1378.4326270079057,916,1378.4326270079057" stroke="#3e7bf7" stroke-width="2.5720018838643046"/><title>Otros → Sal: 880</title></g><g style="mix-blend-mode: multiply;"><path d="M462,304.2621331965053C689,304.2621331965053,689,199.26213319650566,916,199.26213319650566" stroke="#e1596a" stroke-width="110.88835394751332"/><title>Carnes, huevos y lacteos → Huevo: 37940</title></g><g style="mix-blend-mode: multiply;"><path d="M462,1003.5756182405049C689,1003.5756182405049,689,1345.9438042240965,916,1345.9438042240965" stroke="#71f2ec" stroke-width="3.9456847082009223"/><title>Higiene → Lavavajillas: 1350</title></g><g style="mix-blend-mode: multiply;"><path d="M462,551.6046859536139C689,551.6046859536139,689,1123.4244760238723,916,1123.4244760238723" stroke="#e1596a" stroke-width="13.15228236066974"/><title>Carnes, huevos y lacteos → Dulce de leche: 4500</title></g><g style="mix-blend-mode: multiply;"><path d="M462,993.7356651241346C689,993.7356651241346,689,1268.2648534443088,916,1268.2648534443088" stroke="#71f2ec" stroke-width="6.4007774155259405"/><title>Higiene → Detergente: 2190</title></g><g style="mix-blend-mode: multiply;"><path d="M462,569.3310398463833C689,569.3310398463833,689,1354.7141251674884,916,1354.7141251674884" stroke="#e1596a" stroke-width="3.5949571785830625"/><title>Carnes, huevos y lacteos → Atun: 1230</title></g><g style="mix-blend-mode: multiply;"><path d="M462,1213.4719837197363C689,1213.4719837197363,689,1018.826863177099,916,1018.826863177099" stroke="#3e7bf7" stroke-width="18.734695540420674"/><title>Otros → Aceite de girasol: 6410</title></g><g style="mix-blend-mode: multiply;"><path d="M462,402.11949805400843C689,402.11949805400843,689,302.1194980540088,916,302.1194980540088" stroke="#e1596a" stroke-width="84.82637576749286"/><title>Carnes, huevos y lacteos → Milanesa de pollo: 29023</title></g><g style="mix-blend-mode: multiply;"><path d="M462,698.0864177638105C689,698.0864177638105,689,797.4218166705015,916,797.4218166705015" stroke="#3feb34" stroke-width="28.069893287082706"/><title>Verduras y frutas → Mandarina: 9604</title></g><g style="mix-blend-mode: multiply;"><path d="M462,598.1431009239052C689,598.1431009239052,689,515.2058180969968,916,515.2058180969968" stroke="#3feb34" stroke-width="44.02916497646072"/><title>Verduras y frutas → Banana: 15064.400000000001</title></g><g style="mix-blend-mode: multiply;"><path d="M462,903.4014057769347C689,903.4014057769347,689,860.3509849839567,916,860.3509849839567" stroke="#71f2ec" stroke-width="25.851541662249744"/><title>Higiene → Espuma de afeitar: 8845</title></g><g style="mix-blend-mode: multiply;"><path d="M462,1229.2401089054727C689,1229.2401089054727,689,1159.2614040390547,916,1159.2614040390547" stroke="#3e7bf7" stroke-width="12.801554831051881"/><title>Otros → Papel toalla: 4380</title></g><g style="mix-blend-mode: multiply;"><path d="M462,1061.6962253305435C689,1061.6962253305435,689,889.9676734690102,916,889.9676734690102" stroke="#b6c5d7" stroke-width="23.381835307857315"/><title>Utensilios → Vaporera: 8000</title></g><g style="mix-blend-mode: multiply;"><path d="M462,1096.4299416803656C689,1096.4299416803656,689,1141.430621913868,916,1141.430621913868" stroke="#b6c5d7" stroke-width="12.860009419321523"/><title>Utensilios → Taza: 4400</title></g><g style="mix-blend-mode: multiply;"><path d="M462,1030.27688413561C689,1030.27688413561,689,607.5747629736339,916,607.5747629736339" stroke="#b6c5d7" stroke-width="39.45684708200922"/><title>Utensilios → Sarten: 13500</title></g><g style="mix-blend-mode: multiply;"><path d="M462,829.2631454774839C689,829.2631454774839,689,688.3468290152209,916,688.3468290152209" stroke="#d2ad25" stroke-width="32.29250660721107"/><title>Cereales → Chocolate en polvo: 11048.75</title></g><g style="mix-blend-mode: multiply;"><path d="M462,668.1795890403542C689,668.1795890403542,689,762.5149879470453,916,762.5149879470453" stroke="#3feb34" stroke-width="31.743764159829787"/><title>Verduras y frutas → Jugo de fruta: 10861</title></g><g style="mix-blend-mode: multiply;"><path d="M462,1104.8912433323965C689,1104.8912433323965,689,1327.982289301771,916,1327.982289301771" stroke="#b6c5d7" stroke-width="4.062593884740209"/><title>Utensilios → Jabonera: 1390</title></g><g style="mix-blend-mode: multiply;"><path d="M462,1081.6935399775884C689,1081.6935399775884,689,1063.7666319505715,916,1063.7666319505715" stroke="#b6c5d7" stroke-width="16.612793986232624"/><title>Utensilios → Corta uñas: 5684</title></g><g style="mix-blend-mode: multiply;"><path d="M462,1283.4844461108803C689,1283.4844461108803,689,1176.0692308695227,916,1176.0692308695227" stroke="#f18c31" stroke-width="10.814098829884008"/><title>Snacks → Empanada: 3700</title></g><g style="mix-blend-mode: multiply;"><path d="M462,179.4089781113742C689,179.4089781113742,689,69.40897811137444,916,69.40897811137444" stroke="#e1596a" stroke-width="138.81795622274888"/><title>Carnes, huevos y lacteos → Milanesa de carne: 47496</title></g><g style="mix-blend-mode: multiply;"><path d="M462,636.2326951862874C689,636.2326951862874,689,725.5680940929784,916,725.5680940929784" stroke="#3feb34" stroke-width="32.15002354830381"/><title>Verduras y frutas → Brocoli: 11000</title></g><g style="mix-blend-mode: multiply;"><path d="M462,732.8807807489621C689,732.8807807489621,689,1205.9079874458862,916,1205.9079874458862" stroke="#3feb34" stroke-width="8.696581369816181"/><title>Verduras y frutas → Zanahoria: 2975.5</title></g><g style="mix-blend-mode: multiply;"><path d="M462,972.2536039350408C689,972.2536039350408,689,1219.3480993096694,916,1219.3480993096694" stroke="#71f2ec" stroke-width="8.183642357750061"/><title>Higiene → Tapones para oidos: 2800</title></g><g style="mix-blend-mode: multiply;"><path d="M462,1178.7945892552384C689,1178.7945892552384,689,649.751881113127,916,649.751881113127" stroke="#8eea1e" stroke-width="34.897389196977045"/><title>Salud → Barra de proteina: 11940</title></g><g style="mix-blend-mode: multiply;"><path d="M462,536.3955327682061C689,536.3955327682061,689,1041.8272229523823,916,1041.8272229523823" stroke="#e1596a" stroke-width="17.266024010145888"/><title>Carnes, huevos y lacteos → Suprema de pollo: 5907.5</title></g><g style="mix-blend-mode: multiply;"><path d="M462,1265.0931712765437C689,1265.0931712765437,689,829.4409887334373,916,829.4409887334373" stroke="#f18c31" stroke-width="25.968450838789032"/><title>Snacks → Galletas: 8885</title></g><g style="mix-blend-mode: multiply;"><path d="M462,1141.032925233049C689,1141.032925233049,689,562.5333700089283,916,562.5333700089283" stroke="#8eea1e" stroke-width="40.62593884740209"/><title>Salud → Vitamina: 13900</title></g><g style="mix-blend-mode: multiply;"><path d="M462,720.3269272357029C689,720.3269272357029,689,1085.2785917720391,916,1085.2785917720391" stroke="#3feb34" stroke-width="16.411125656702353"/><title>Verduras y frutas → Manzana: 5615</title></g><g style="mix-blend-mode: multiply;"><path d="M462,1112.2667510073188C689,1112.2667510073188,689,1370.7597909592764,916,1370.7597909592764" stroke="#b6c5d7" stroke-width="2.773670213394574"/><title>Utensilios → Portaminas: 949</title></g><g style="mix-blend-mode: multiply;"><path d="M462,1115.4174533150524C689,1115.4174533150524,689,1404.6974975057046,916,1404.6974975057046" stroke="#b6c5d7" stroke-width="1"/><title>Utensilios → Goma de borrar: 207</title></g><g style="mix-blend-mode: multiply;"><path d="M462,882.4199213440141C689,882.4199213440141,689,1279.5209557538672,916,1279.5209557538672" stroke="#d2ad25" stroke-width="6.111427203591206"/><title>Cereales → Cereal: 2091</title></g><g style="mix-blend-mode: multiply;"><path d="M462,1239.358232793771C689,1239.358232793771,689,1232.157266961317,916,1232.157266961317" stroke="#3e7bf7" stroke-width="7.434692945545256"/><title>Otros → Salsa bolognesa: 2543.75</title></g><g style="mix-blend-mode: multiply;"><path d="M462,872.682117620645C689,872.682117620645,689,1105.1662447219637,916,1105.1662447219637" stroke="#d2ad25" stroke-width="13.364180243147198"/><title>Cereales → Fideos: 4572.5</title></g><g style="mix-blend-mode: multiply;"><path d="M462,1294.1231811759553C689,1294.1231811759553,689,1385.5954467738825,916,1385.5954467738825" stroke="#f18c31" stroke-width="1.7536376480892988"/><title>Snacks → Pionono: 600</title></g><g style="mix-blend-mode: multiply;"><path d="M462,560.8112836060826C689,560.8112836060826,689,1290.2071258277967,916,1290.2071258277967" stroke="#e1596a" stroke-width="5.260912944267896"/><title>Carnes, huevos y lacteos → Jamon: 1800</title></g><g style="mix-blend-mode: multiply;"><path d="M462,565.4876506676542C689,565.4876506676542,689,1318.9050817699633,916,1318.9050817699633" stroke="#e1596a" stroke-width="4.091821178875031"/><title>Carnes, huevos y lacteos → Queso: 1400</title></g><g style="mix-blend-mode: multiply;"><path d="M462,1114.3842684673866C689,1114.3842684673866,689,1398.6643126580389,916,1398.6643126580389" stroke="#b6c5d7" stroke-width="1.4613647067410822"/><title>Utensilios → Minas: 500</title></g><g style="mix-blend-mode: multiply;"><path d="M462,1108.9012280876939C689,1108.9012280876939,689,1336.9922740570685,916,1336.9922740570685" stroke="#b6c5d7" stroke-width="3.957375625854851"/><title>Utensilios → Tijera: 1354</title></g><g style="mix-blend-mode: multiply;"><path d="M462,963.1200745179091C689,963.1200745179091,689,1191.5179885227212,916,1191.5179885227212" stroke="#71f2ec" stroke-width="10.083416476513468"/><title>Higiene → Maquina de afeitar: 3450</title></g><g style="mix-blend-mode: multiply;"><path d="M462,517.5329678159455C689,517.5329678159455,689,969.1508113890785,916,969.1508113890785" stroke="#e1596a" stroke-width="20.459105894375153"/><title>Carnes, huevos y lacteos → Milanesa napolitana: 7000</title></g><g style="mix-blend-mode: multiply;"><path d="M462,999.269414859151C689,999.269414859151,689,1300.170943327184,916,1300.170943327184" stroke="#71f2ec" stroke-width="4.666722054506972"/><title>Higiene → Antitranspirante: 1596.7</title></g></g><g><text x="466" y="340.5642592178373" text-anchor="start"><tspan alignment-baseline="middle" x="466" style="font-family: Arial, sans-serif; font-size: 10px; fill: black; font-weight: bold;">Carnes, huevos y lacteos</tspan></text><text x="8" y="295.17515046909944" text-anchor="start"><tspan alignment-baseline="middle" x="8" style="font-family: Arial, sans-serif; font-size: 10px; fill: black; font-weight: bold;">Feria Sabados</tspan></text><text x="8" y="593.5060175694671" text-anchor="start"><tspan alignment-baseline="middle" x="8" style="font-family: Arial, sans-serif; font-size: 10px; fill: black; font-weight: bold;">Coto</tspan></text><text x="8" y="776.5730586538677" text-anchor="start"><tspan alignment-baseline="middle" x="8" style="font-family: Arial, sans-serif; font-size: 10px; fill: black; font-weight: bold;">Dia</tspan></text><text x="466" y="656.6787949347726" text-anchor="start"><tspan alignment-baseline="middle" x="466" style="font-family: Arial, sans-serif; font-size: 10px; fill: black; font-weight: bold;">Verduras y frutas</tspan></text><text x="466" y="813.8523531898401" text-anchor="start"><tspan alignment-baseline="middle" x="466" style="font-family: Arial, sans-serif; font-size: 10px; fill: black; font-weight: bold;">Cereales</tspan></text><text x="912" y="69.4089781113745" text-anchor="end"><tspan alignment-baseline="middle" x="912" style="font-family: Arial, sans-serif; font-size: 10px; fill: black; font-weight: bold;">Milanesa de carne</tspan></text><text x="8" y="924.8049208368575" text-anchor="start"><tspan alignment-baseline="middle" x="8" style="font-family: Arial, sans-serif; font-size: 10px; fill: black; font-weight: bold;">Farmacity</tspan></text><text x="466" y="948.0120477702077" text-anchor="start"><tspan alignment-baseline="middle" x="466" style="font-family: Arial, sans-serif; font-size: 10px; fill: black; font-weight: bold;">Higiene</tspan></text><text x="912" y="199.26213319650566" text-anchor="end"><tspan alignment-baseline="middle" x="912" style="font-family: Arial, sans-serif; font-size: 10px; fill: black; font-weight: bold;">Huevo</tspan></text><text x="8" y="1045.3009577047255" text-anchor="start"><tspan alignment-baseline="middle" x="8" style="font-family: Arial, sans-serif; font-size: 10px; fill: black; font-weight: bold;">Carrefour Express</tspan></text><text x="466" y="1063.1342082019767" text-anchor="start"><tspan alignment-baseline="middle" x="466" style="font-family: Arial, sans-serif; font-size: 10px; fill: black; font-weight: bold;">Utensilios</tspan></text><text x="912" y="302.1194980540088" text-anchor="end"><tspan alignment-baseline="middle" x="912" style="font-family: Arial, sans-serif; font-size: 10px; fill: black; font-weight: bold;">Milanesa de pollo</tspan></text><text x="466" y="1159.912295879437" text-anchor="start"><tspan alignment-baseline="middle" x="466" style="font-family: Arial, sans-serif; font-size: 10px; fill: black; font-weight: bold;">Salud</tspan></text><text x="8" y="1142.8258027473303" text-anchor="start"><tspan alignment-baseline="middle" x="8" style="font-family: Arial, sans-serif; font-size: 10px; fill: black; font-weight: bold;">Bazar La Luna</tspan></text><text x="912" y="384.97659630775934" text-anchor="end"><tspan alignment-baseline="middle" x="912" style="font-family: Arial, sans-serif; font-size: 10px; fill: black; font-weight: bold;">Pan</tspan></text><text x="912" y="456.805871143265" text-anchor="end"><tspan alignment-baseline="middle" x="912" style="font-family: Arial, sans-serif; font-size: 10px; fill: black; font-weight: bold;">Leche</tspan></text><text x="912" y="515.2058180969968" text-anchor="end"><tspan alignment-baseline="middle" x="912" style="font-family: Arial, sans-serif; font-size: 10px; fill: black; font-weight: bold;">Banana</tspan></text><text x="466" y="1225.6067909033377" text-anchor="start"><tspan alignment-baseline="middle" x="466" style="font-family: Arial, sans-serif; font-size: 10px; fill: black; font-weight: bold;">Otros</tspan></text><text x="466" y="1273.5544729285746" text-anchor="start"><tspan alignment-baseline="middle" x="466" style="font-family: Arial, sans-serif; font-size: 10px; fill: black; font-weight: bold;">Snacks</tspan></text><text x="912" y="562.5333700089283" text-anchor="end"><tspan alignment-baseline="middle" x="912" style="font-family: Arial, sans-serif; font-size: 10px; fill: black; font-weight: bold;">Vitamina</tspan></text><text x="912" y="607.5747629736338" text-anchor="end"><tspan alignment-baseline="middle" x="912" style="font-family: Arial, sans-serif; font-size: 10px; fill: black; font-weight: bold;">Sarten</tspan></text><text x="912" y="649.751881113127" text-anchor="end"><tspan alignment-baseline="middle" x="912" style="font-family: Arial, sans-serif; font-size: 10px; fill: black; font-weight: bold;">Barra de proteina</tspan></text><text x="912" y="688.3468290152209" text-anchor="end"><tspan alignment-baseline="middle" x="912" style="font-family: Arial, sans-serif; font-size: 10px; fill: black; font-weight: bold;">Chocolate en polvo</tspan></text><text x="912" y="725.5680940929784" text-anchor="end"><tspan alignment-baseline="middle" x="912" style="font-family: Arial, sans-serif; font-size: 10px; fill: black; font-weight: bold;">Brocoli</tspan></text><text x="912" y="762.5149879470453" text-anchor="end"><tspan alignment-baseline="middle" x="912" style="font-family: Arial, sans-serif; font-size: 10px; fill: black; font-weight: bold;">Jugo de fruta</tspan></text><text x="912" y="797.4218166705014" text-anchor="end"><tspan alignment-baseline="middle" x="912" style="font-family: Arial, sans-serif; font-size: 10px; fill: black; font-weight: bold;">Mandarina</tspan></text><text x="912" y="829.4409887334373" text-anchor="end"><tspan alignment-baseline="middle" x="912" style="font-family: Arial, sans-serif; font-size: 10px; fill: black; font-weight: bold;">Galletas</tspan></text><text x="912" y="860.3509849839567" text-anchor="end"><tspan alignment-baseline="middle" x="912" style="font-family: Arial, sans-serif; font-size: 10px; fill: black; font-weight: bold;">Espuma de afeitar</tspan></text><text x="912" y="889.9676734690102" text-anchor="end"><tspan alignment-baseline="middle" x="912" style="font-family: Arial, sans-serif; font-size: 10px; fill: black; font-weight: bold;">Vaporera</tspan></text><text x="912" y="917.4946104234239" text-anchor="end"><tspan alignment-baseline="middle" x="912" style="font-family: Arial, sans-serif; font-size: 10px; fill: black; font-weight: bold;">Shampoo</tspan></text><text x="912" y="943.6259440829" text-anchor="end"><tspan alignment-baseline="middle" x="912" style="font-family: Arial, sans-serif; font-size: 10px; fill: black; font-weight: bold;">Arroz</tspan></text><text x="8" y="1195.9047015991118" text-anchor="start"><tspan alignment-baseline="middle" x="8" style="font-family: Arial, sans-serif; font-size: 10px; fill: black; font-weight: bold;">Gastronovo Belgrano</tspan></text><text x="912" y="969.1508113890785" text-anchor="end"><tspan alignment-baseline="middle" x="912" style="font-family: Arial, sans-serif; font-size: 10px; fill: black; font-weight: bold;">Milanesa napolitana</tspan></text><text x="912" y="994.4199398715773" text-anchor="end"><tspan alignment-baseline="middle" x="912" style="font-family: Arial, sans-serif; font-size: 10px; fill: black; font-weight: bold;">Acondicionador</tspan></text><text x="912" y="1018.826863177099" text-anchor="end"><tspan alignment-baseline="middle" x="912" style="font-family: Arial, sans-serif; font-size: 10px; fill: black; font-weight: bold;">Aceite de girasol</tspan></text><text x="8" y="1219.7672665513724" text-anchor="start"><tspan alignment-baseline="middle" x="8" style="font-family: Arial, sans-serif; font-size: 10px; fill: black; font-weight: bold;">Res</tspan></text><text x="912" y="1041.8272229523823" text-anchor="end"><tspan alignment-baseline="middle" x="912" style="font-family: Arial, sans-serif; font-size: 10px; fill: black; font-weight: bold;">Suprema de pollo</tspan></text><text x="912" y="1063.7666319505715" text-anchor="end"><tspan alignment-baseline="middle" x="912" style="font-family: Arial, sans-serif; font-size: 10px; fill: black; font-weight: bold;">Corta uñas</tspan></text><text x="912" y="1085.278591772039" text-anchor="end"><tspan alignment-baseline="middle" x="912" style="font-family: Arial, sans-serif; font-size: 10px; fill: black; font-weight: bold;">Manzana</tspan></text><text x="8" y="1241.5839209141955" text-anchor="start"><tspan alignment-baseline="middle" x="8" style="font-family: Arial, sans-serif; font-size: 10px; fill: black; font-weight: bold;">Fruteria Colon</tspan></text><text x="912" y="1105.1662447219637" text-anchor="end"><tspan alignment-baseline="middle" x="912" style="font-family: Arial, sans-serif; font-size: 10px; fill: black; font-weight: bold;">Fideos</tspan></text><text x="912" y="1123.4244760238723" text-anchor="end"><tspan alignment-baseline="middle" x="912" style="font-family: Arial, sans-serif; font-size: 10px; fill: black; font-weight: bold;">Dulce de leche</tspan></text><text x="912" y="1141.430621913868" text-anchor="end"><tspan alignment-baseline="middle" x="912" style="font-family: Arial, sans-serif; font-size: 10px; fill: black; font-weight: bold;">Taza</tspan></text><text x="912" y="1159.2614040390547" text-anchor="end"><tspan alignment-baseline="middle" x="912" style="font-family: Arial, sans-serif; font-size: 10px; fill: black; font-weight: bold;">Papel toalla</tspan></text><text x="8" y="1260.1746126868875" text-anchor="start"><tspan alignment-baseline="middle" x="8" style="font-family: Arial, sans-serif; font-size: 10px; fill: black; font-weight: bold;">Empanadaza</tspan></text><text x="912" y="1176.0692308695225" text-anchor="end"><tspan alignment-baseline="middle" x="912" style="font-family: Arial, sans-serif; font-size: 10px; fill: black; font-weight: bold;">Empanada</tspan></text><text x="912" y="1191.5179885227212" text-anchor="end"><tspan alignment-baseline="middle" x="912" style="font-family: Arial, sans-serif; font-size: 10px; fill: black; font-weight: bold;">Maquina de afeitar</tspan></text><text x="8" y="1275.2580291634008" text-anchor="start"><tspan alignment-baseline="middle" x="8" style="font-family: Arial, sans-serif; font-size: 10px; fill: black; font-weight: bold;">Supermercado Orient</tspan></text><text x="8" y="1289.3331039922627" text-anchor="start"><tspan alignment-baseline="middle" x="8" style="font-family: Arial, sans-serif; font-size: 10px; fill: black; font-weight: bold;">Mercado la Oficina</tspan></text><text x="8" y="1303.1159058797766" text-anchor="start"><tspan alignment-baseline="middle" x="8" style="font-family: Arial, sans-serif; font-size: 10px; fill: black; font-weight: bold;">Tienda peruana</tspan></text><text x="912" y="1205.9079874458862" text-anchor="end"><tspan alignment-baseline="middle" x="912" style="font-family: Arial, sans-serif; font-size: 10px; fill: black; font-weight: bold;">Zanahoria</tspan></text><text x="912" y="1219.3480993096694" text-anchor="end"><tspan alignment-baseline="middle" x="912" style="font-family: Arial, sans-serif; font-size: 10px; fill: black; font-weight: bold;">Tapones para oidos</tspan></text><text x="912" y="1232.157266961317" text-anchor="end"><tspan alignment-baseline="middle" x="912" style="font-family: Arial, sans-serif; font-size: 10px; fill: black; font-weight: bold;">Salsa bolognesa</tspan></text><text x="912" y="1244.5280252009425" text-anchor="end"><tspan alignment-baseline="middle" x="912" style="font-family: Arial, sans-serif; font-size: 10px; fill: black; font-weight: bold;">Jabon</tspan></text><text x="912" y="1256.6229508521706" text-anchor="end"><tspan alignment-baseline="middle" x="912" style="font-family: Arial, sans-serif; font-size: 10px; fill: black; font-weight: bold;">Crema dental</tspan></text><text x="912" y="1268.2648534443088" text-anchor="end"><tspan alignment-baseline="middle" x="912" style="font-family: Arial, sans-serif; font-size: 10px; fill: black; font-weight: bold;">Detergente</tspan></text><text x="912" y="1279.5209557538672" text-anchor="end"><tspan alignment-baseline="middle" x="912" style="font-family: Arial, sans-serif; font-size: 10px; fill: black; font-weight: bold;">Cereal</tspan></text><text x="912" y="1290.2071258277965" text-anchor="end"><tspan alignment-baseline="middle" x="912" style="font-family: Arial, sans-serif; font-size: 10px; fill: black; font-weight: bold;">Jamon</tspan></text><text x="912" y="1300.170943327184" text-anchor="end"><tspan alignment-baseline="middle" x="912" style="font-family: Arial, sans-serif; font-size: 10px; fill: black; font-weight: bold;">Antitranspirante</tspan></text><text x="912" y="1309.6817377674815" text-anchor="end"><tspan alignment-baseline="middle" x="912" style="font-family: Arial, sans-serif; font-size: 10px; fill: black; font-weight: bold;">Budin</tspan></text><text x="912" y="1318.9050817699635" text-anchor="end"><tspan alignment-baseline="middle" x="912" style="font-family: Arial, sans-serif; font-size: 10px; fill: black; font-weight: bold;">Queso</tspan></text><text x="912" y="1327.982289301771" text-anchor="end"><tspan alignment-baseline="middle" x="912" style="font-family: Arial, sans-serif; font-size: 10px; fill: black; font-weight: bold;">Jabonera</tspan></text><text x="912" y="1336.9922740570687" text-anchor="end"><tspan alignment-baseline="middle" x="912" style="font-family: Arial, sans-serif; font-size: 10px; fill: black; font-weight: bold;">Tijera</tspan></text><text x="912" y="1345.9438042240963" text-anchor="end"><tspan alignment-baseline="middle" x="912" style="font-family: Arial, sans-serif; font-size: 10px; fill: black; font-weight: bold;">Lavavajillas</tspan></text><text x="912" y="1354.7141251674884" text-anchor="end"><tspan alignment-baseline="middle" x="912" style="font-family: Arial, sans-serif; font-size: 10px; fill: black; font-weight: bold;">Atun</tspan></text><text x="912" y="1362.9422798046794" text-anchor="end"><tspan alignment-baseline="middle" x="912" style="font-family: Arial, sans-serif; font-size: 10px; fill: black; font-weight: bold;">Te</tspan></text><text x="912" y="1370.7597909592764" text-anchor="end"><tspan alignment-baseline="middle" x="912" style="font-family: Arial, sans-serif; font-size: 10px; fill: black; font-weight: bold;">Portaminas</tspan></text><text x="912" y="1378.4326270079057" text-anchor="end"><tspan alignment-baseline="middle" x="912" style="font-family: Arial, sans-serif; font-size: 10px; fill: black; font-weight: bold;">Sal</tspan></text><text x="912" y="1385.5954467738825" text-anchor="end"><tspan alignment-baseline="middle" x="912" style="font-family: Arial, sans-serif; font-size: 10px; fill: black; font-weight: bold;">Pionono</tspan></text><text x="912" y="1392.2029479512976" text-anchor="end"><tspan alignment-baseline="middle" x="912" style="font-family: Arial, sans-serif; font-size: 10px; fill: black; font-weight: bold;">Bolsa de tela</tspan></text><text x="912" y="1398.6643126580389" text-anchor="end"><tspan alignment-baseline="middle" x="912" style="font-family: Arial, sans-serif; font-size: 10px; fill: black; font-weight: bold;">Minas</tspan></text><text x="912" y="1404.6974975057046" text-anchor="end"><tspan alignment-baseline="middle" x="912" style="font-family: Arial, sans-serif; font-size: 10px; fill: black; font-weight: bold;">Goma de borrar</tspan></text></g><g><text x="460" y="105.99999999999977" text-anchor="middle" style="font-family: Arial, sans-serif; font-size: 12px; fill: rgb(123, 123, 123); font-weight: bold;">Categoria</text><text x="2" y="93.5" text-anchor="middle" style="font-family: Arial, sans-serif; font-size: 12px; fill: rgb(123, 123, 123); font-weight: bold;">Tienda</text><text x="918" y="-4" text-anchor="middle" style="font-family: Arial, sans-serif; font-size: 12px; fill: rgb(123, 123, 123); font-weight: bold;">Subcategoria</text></g></g></svg>
